<mxfile host="app.diagrams.net" agent="Mozilla/5.0 (X11; Ubuntu; Linux x86_64; rv:132.0) Gecko/20100101 Firefox/132.0" version="24.8.4">
  <diagram id="f106602c-feb2-e66a-4537-3a34d633f6aa" name="Page-1">
    <mxGraphModel dx="943" dy="545" grid="1" gridSize="10" guides="1" tooltips="1" connect="0" arrows="0" fold="1" page="1" pageScale="1" pageWidth="850" pageHeight="250" background="none" math="0" shadow="0">
      <root>
        <mxCell id="0" />
        <mxCell id="1" parent="0" />
        <mxCell id="2" value="Architecture: EpubConverter &amp;gt; Backend Cloud Run" style="fillColor=#4DA1F5;strokeColor=none;shadow=1;gradientColor=none;fontSize=14;align=left;spacingLeft=50;fontColor=#ffffff;html=1;" parent="1" vertex="1">
          <mxGeometry x="10" y="20" width="831" height="40" as="geometry" />
        </mxCell>
        <mxCell id="507" style="edgeStyle=orthogonalEdgeStyle;rounded=0;html=1;labelBackgroundColor=none;startArrow=blockThin;startFill=1;endArrow=blockThin;endFill=1;jettySize=auto;orthogonalLoop=1;strokeColor=#4284F3;strokeWidth=2;fontSize=10;fontColor=#999999;align=center;dashed=0;endSize=4;startSize=4;" parent="1" source="495" target="497" edge="1">
          <mxGeometry relative="1" as="geometry" />
        </mxCell>
        <mxCell id="495" value="Clients" style="strokeColor=#dddddd;fillColor=#ffffff;shadow=1;strokeWidth=1;rounded=1;absoluteArcSize=1;arcSize=2;labelPosition=center;verticalLabelPosition=middle;align=center;verticalAlign=bottom;spacingLeft=0;fontColor=#999999;fontSize=12;whiteSpace=wrap;spacingBottom=2;html=1;" parent="1" vertex="1">
          <mxGeometry x="10" y="120" width="70" height="85" as="geometry" />
        </mxCell>
        <mxCell id="496" value="" style="dashed=0;connectable=0;html=1;fillColor=#757575;strokeColor=none;shape=mxgraph.gcp2.laptop;part=1;" parent="495" vertex="1">
          <mxGeometry x="0.5" width="50" height="33" relative="1" as="geometry">
            <mxPoint x="-25" y="18.5" as="offset" />
          </mxGeometry>
        </mxCell>
        <mxCell id="497" value="" style="strokeColor=#dddddd;fillColor=#ffffff;shadow=1;strokeWidth=1;rounded=1;absoluteArcSize=1;arcSize=2;fontSize=10;fontColor=#999999;align=left;html=1;" parent="1" vertex="1">
          <mxGeometry x="171" y="80" width="150" height="44" as="geometry" />
        </mxCell>
        <mxCell id="498" value="Frontend&#xa;Platform Services" style="dashed=0;connectable=0;html=1;fillColor=#757575;strokeColor=none;shape=mxgraph.gcp2.frontend_platform_services;part=1;labelPosition=right;verticalLabelPosition=middle;align=left;verticalAlign=middle;spacingLeft=5;fontColor=#000000;fontSize=12;" parent="497" vertex="1">
          <mxGeometry y="0.5" width="32" height="32" relative="1" as="geometry">
            <mxPoint x="5" y="-16" as="offset" />
          </mxGeometry>
        </mxCell>
        <mxCell id="tBPHo12tWmf4kduvCuqe-524" value="&lt;b&gt;Google &lt;/b&gt;Cloud Platform" style="fillColor=#F6F6F6;strokeColor=none;shadow=0;gradientColor=none;fontSize=14;align=left;spacing=10;fontColor=#717171;9E9E9E;verticalAlign=top;spacingTop=-4;fontStyle=0;spacingLeft=40;html=1;" vertex="1" parent="1">
          <mxGeometry x="421" y="80" width="410" height="140" as="geometry" />
        </mxCell>
        <mxCell id="tBPHo12tWmf4kduvCuqe-525" value="" style="shape=mxgraph.gcp2.google_cloud_platform;fillColor=#F6F6F6;strokeColor=none;shadow=0;gradientColor=none;" vertex="1" parent="tBPHo12tWmf4kduvCuqe-524">
          <mxGeometry width="23" height="20" relative="1" as="geometry">
            <mxPoint x="20" y="10" as="offset" />
          </mxGeometry>
        </mxCell>
        <mxCell id="tBPHo12tWmf4kduvCuqe-541" value="" style="strokeColor=#dddddd;shadow=1;strokeWidth=1;rounded=1;absoluteArcSize=1;arcSize=2;" vertex="1" parent="tBPHo12tWmf4kduvCuqe-524">
          <mxGeometry x="19" y="50" width="160" height="60" as="geometry" />
        </mxCell>
        <mxCell id="tBPHo12tWmf4kduvCuqe-542" value="&lt;font color=&quot;#000000&quot;&gt;EpubConverter&lt;/font&gt;&lt;br&gt;Cloud Run" style="editableCssRules=.*;html=1;fontColor=#999999;shape=image;verticalLabelPosition=middle;verticalAlign=middle;labelPosition=right;align=left;spacingLeft=20;part=1;points=[];imageAspect=0;image=data:image/svg+xml,PHN2ZyB4bWxucz0iaHR0cDovL3d3dy53My5vcmcvMjAwMC9zdmciIHhtbG5zOnY9Imh0dHBzOi8vdmVjdGEuaW8vbmFubyIgd2lkdGg9IjM2NS40NjQ5OTY3NzA0MjQ5MyIgaGVpZ2h0PSIzNzkuMjIyOTk0NDYzNTc3OTUiIHZpZXdCb3g9IjAgMCA5Ni42OTU5OTkxNDU1MDc4MSAxMDAuMzM1OTk4NTM1MTU2MjUiPiYjeGE7PHN0eWxlIHR5cGU9InRleHQvY3NzIj4mI3hhOwkuc3Qwe2ZpbGw6IzQyODVmNDt9JiN4YTsJLnN0MXtmaWxsOiNhZWNiZmE7fSYjeGE7PC9zdHlsZT4mI3hhOwk8cGF0aCBjbGFzcz0ic3QwIiBkPSJNMjkuNzk0IDEwMC4zMzZMNDYuOTIgNTAuMTY4aDQ5Ljc3NnpNMCA5OS42NzFsMTIuOTc2LTQ5LjUwMkgyOS4yMkwxNi44OTcgOTIuMDU0eiIvPiYjeGE7CTxwYXRoIGNsYXNzPSJzdDEiIGQ9Ik0yOS43OTQgMEw0Ni45MiA1MC4xNjhoNDkuNzc2ek0wIC42NjZsMTIuOTc2IDQ5LjUwMkgyOS4yMkwxNi44OTcgOC4yODN6Ii8+JiN4YTs8L3N2Zz4=;" vertex="1" parent="tBPHo12tWmf4kduvCuqe-541">
          <mxGeometry width="30" height="30" relative="1" as="geometry">
            <mxPoint x="15" y="15" as="offset" />
          </mxGeometry>
        </mxCell>
        <mxCell id="tBPHo12tWmf4kduvCuqe-543" value="" style="strokeColor=#dddddd;shadow=1;strokeWidth=1;rounded=1;absoluteArcSize=1;arcSize=2;" vertex="1" parent="tBPHo12tWmf4kduvCuqe-524">
          <mxGeometry x="241" y="50" width="150" height="60" as="geometry" />
        </mxCell>
        <mxCell id="tBPHo12tWmf4kduvCuqe-544" value="&lt;font color=&quot;#000000&quot;&gt;Name&lt;/font&gt;&lt;br&gt;Cloud Storage" style="editableCssRules=.*;html=1;fontColor=#999999;shape=image;verticalLabelPosition=middle;verticalAlign=middle;labelPosition=right;align=left;spacingLeft=20;part=1;points=[];imageAspect=0;image=data:image/svg+xml,PHN2ZyB4bWxucz0iaHR0cDovL3d3dy53My5vcmcvMjAwMC9zdmciIHhtbG5zOnY9Imh0dHBzOi8vdmVjdGEuaW8vbmFubyIgd2lkdGg9IjIwIiBoZWlnaHQ9IjE2IiB2aWV3Qm94PSIwIDAgMjAgMTYiPiYjeGE7CTxzdHlsZSB0eXBlPSJ0ZXh0L2NzcyI+JiN4YTsJLnN0MHtmaWxsOiM0Mjg1ZjQ7fSYjeGE7CS5zdDF7ZmlsbDojNjY5ZGY2O30mI3hhOwkuc3Qye2ZpbGw6I2FlY2JmYTt9JiN4YTsJLnN0M3tmaWxsOiNmZmY7fSYjeGE7CTwvc3R5bGU+JiN4YTsJPHBhdGggY2xhc3M9InN0MiIgZD0iTTAgMGgyMHY3SDB6Ii8+JiN4YTsJPHBhdGggY2xhc3M9InN0MSIgZD0iTTE4IDBoMnY3aC0yeiIvPiYjeGE7CTxwYXRoIGNsYXNzPSJzdDAiIGQ9Ik0xOCA3bDItN2gtMnoiLz4mI3hhOwk8cGF0aCBjbGFzcz0ic3QxIiBkPSJNMCAwaDJ2N0gweiIvPiYjeGE7CTxnIGNsYXNzPSJzdDMiPiYjeGE7CQk8cGF0aCBkPSJNNCAzaDZ2MUg0eiIvPiYjeGE7CQk8cmVjdCB4PSIxMyIgeT0iMiIgd2lkdGg9IjMiIGhlaWdodD0iMyIgcng9IjEuNSIvPiYjeGE7CTwvZz4mI3hhOwk8cGF0aCBjbGFzcz0ic3QyIiBkPSJNMCA5aDIwdjdIMHoiLz4mI3hhOwk8cGF0aCBjbGFzcz0ic3QxIiBkPSJNMTggOWgydjdoLTJ6Ii8+JiN4YTsJPHBhdGggY2xhc3M9InN0MCIgZD0iTTE4IDE2bDItN2gtMnoiLz4mI3hhOwk8cGF0aCBjbGFzcz0ic3QxIiBkPSJNMCA5aDJ2N0gweiIvPiYjeGE7CTxnIGNsYXNzPSJzdDMiPiYjeGE7CQk8cGF0aCBkPSJNNCAxMmg2djFINHoiLz4mI3hhOwkJPHJlY3QgeD0iMTMiIHk9IjExIiB3aWR0aD0iMyIgaGVpZ2h0PSIzIiByeD0iMS41Ii8+JiN4YTsJPC9nPiYjeGE7PC9zdmc+;" vertex="1" parent="tBPHo12tWmf4kduvCuqe-543">
          <mxGeometry width="30" height="24" relative="1" as="geometry">
            <mxPoint x="15" y="18" as="offset" />
          </mxGeometry>
        </mxCell>
        <mxCell id="tBPHo12tWmf4kduvCuqe-545" style="edgeStyle=orthogonalEdgeStyle;rounded=0;html=1;labelBackgroundColor=none;startArrow=blockThin;startFill=1;endArrow=blockThin;endFill=1;jettySize=auto;orthogonalLoop=1;strokeColor=#4284F3;strokeWidth=2;fontSize=10;fontColor=#999999;align=center;dashed=0;endSize=4;startSize=4;" edge="1" parent="tBPHo12tWmf4kduvCuqe-524">
          <mxGeometry relative="1" as="geometry">
            <mxPoint x="240" y="79.71000000000001" as="sourcePoint" />
            <mxPoint x="180" y="79.71000000000001" as="targetPoint" />
          </mxGeometry>
        </mxCell>
        <mxCell id="tBPHo12tWmf4kduvCuqe-546" style="edgeStyle=orthogonalEdgeStyle;rounded=0;html=1;labelBackgroundColor=none;startArrow=blockThin;startFill=1;endArrow=blockThin;endFill=1;jettySize=auto;orthogonalLoop=1;strokeColor=#4284F3;strokeWidth=2;fontSize=10;fontColor=#999999;align=center;dashed=0;endSize=4;startSize=4;entryX=0.027;entryY=0.589;entryDx=0;entryDy=0;entryPerimeter=0;exitX=1;exitY=0.447;exitDx=0;exitDy=0;exitPerimeter=0;" edge="1" parent="1" source="497" target="tBPHo12tWmf4kduvCuqe-541">
          <mxGeometry relative="1" as="geometry">
            <mxPoint x="331" y="192" as="sourcePoint" />
            <mxPoint x="391" y="150" as="targetPoint" />
            <Array as="points">
              <mxPoint x="381" y="100" />
              <mxPoint x="381" y="165" />
            </Array>
          </mxGeometry>
        </mxCell>
        <mxCell id="tBPHo12tWmf4kduvCuqe-549" value="" style="group" vertex="1" connectable="0" parent="1">
          <mxGeometry x="141" y="130" width="220" height="90" as="geometry" />
        </mxCell>
        <mxCell id="tBPHo12tWmf4kduvCuqe-547" value="" style="rounded=1;whiteSpace=wrap;html=1;fillColor=#f5f5f5;fontColor=#333333;strokeColor=#666666;" vertex="1" parent="tBPHo12tWmf4kduvCuqe-549">
          <mxGeometry y="5" width="220" height="80" as="geometry" />
        </mxCell>
        <mxCell id="tBPHo12tWmf4kduvCuqe-548" value="&lt;div style=&quot;font-size: 11px;&quot; align=&quot;left&quot;&gt;&lt;font style=&quot;font-size: 11px;&quot;&gt;{&lt;br&gt;&lt;/font&gt;&lt;/div&gt;&lt;div style=&quot;font-size: 11px;&quot; align=&quot;left&quot;&gt;&lt;font style=&quot;font-size: 11px;&quot;&gt;&amp;nbsp;&amp;nbsp;&amp;nbsp; &lt;font style=&quot;font-size: 11px;&quot; color=&quot;#6666ff&quot;&gt;&quot;bucket&quot;&lt;/font&gt;: &quot;bucket-gcp-cloudup2024&quot;,&lt;br&gt;&amp;nbsp;&amp;nbsp;&amp;nbsp;&lt;font style=&quot;font-size: 11px;&quot; color=&quot;#6666ff&quot;&gt; &quot;input_file_name&quot;&lt;/font&gt;: &quot;152460148.pdf&quot;,&lt;br&gt;&amp;nbsp;&amp;nbsp;&amp;nbsp;&lt;font style=&quot;font-size: 11px;&quot; color=&quot;#6666ff&quot;&gt; &quot;output_file_name&quot;&lt;/font&gt;: &quot;152460148.epub&quot; &lt;br&gt;}&lt;/font&gt;&lt;/div&gt;" style="text;html=1;align=left;verticalAlign=middle;whiteSpace=wrap;rounded=0;" vertex="1" parent="tBPHo12tWmf4kduvCuqe-549">
          <mxGeometry x="5.238095238095238" width="214.76190476190476" height="90" as="geometry" />
        </mxCell>
      </root>
    </mxGraphModel>
  </diagram>
</mxfile>
